<svg width="632" height="632" viewBox="0 0 632 632" fill="none" xmlns="http://www.w3.org/2000/svg">
<g clip-path="url(#clip0_70_2)">
<path d="M295.357 582.297V497.933H305.572V539.786H306.561L344.459 497.933H357.805L322.379 535.996L357.805 582.297H345.447L316.118 543.081L305.572 554.945V582.297H295.357Z" fill="#FE6601"/>
<path d="M291.75 457.75C288.588 457.75 285.881 456.625 283.631 454.375C281.381 452.125 280.254 449.416 280.25 446.25V365.75C280.25 362.587 281.377 359.881 283.631 357.631C285.885 355.381 288.591 354.254 291.75 354.25H372.25C375.413 354.25 378.121 355.377 380.375 357.631C382.629 359.885 383.754 362.591 383.75 365.75V446.25C383.75 449.413 382.625 452.121 380.375 454.375C378.125 456.629 375.416 457.754 372.25 457.75H291.75ZM291.75 417.5H372.25V365.75H291.75V417.5Z" fill="#FE6601"/>
<path fill-rule="evenodd" clip-rule="evenodd" d="M535.157 406.109L332.047 54.3125L128.937 406.109H131.121L332.047 264.156L532.973 406.109H535.157Z" fill="#D9D9D9"/>
<path fill-rule="evenodd" clip-rule="evenodd" d="M332 264.665L332.719 264.156L533.645 406.109H535.829L332.719 54.3125L332 55.5585V264.665Z" fill="#FE6601"/>
</g>
<defs>
<clipPath id="clip0_70_2">
<rect width="632" height="632" fill="white"/>
</clipPath>
</defs>
</svg>
